<svg width="41" height="33" viewBox="0 0 41 33" fill="none" xmlns="http://www.w3.org/2000/svg">
<g style="mix-blend-mode:darken" filter="url(#filter0_b)">
<path d="M7.83225 22.72C7.83225 23.616 8.19492 24.4267 8.92025 25.152C9.64558 25.8347 10.6056 26.176 11.8003 26.176C12.9523 26.176 14.1043 25.92 15.2563 25.408C16.4509 24.896 17.5816 24.128 18.6483 23.104V18.368H12.3763C10.9256 18.368 9.79492 18.816 8.98425 19.712C8.21625 20.608 7.83225 21.6107 7.83225 22.72ZM11.9283 32.768C8.13092 32.768 5.31492 31.8507 3.48025 30.016C1.64558 28.1387 0.72825 25.7067 0.72825 22.72C0.72825 19.52 1.81625 17.0667 3.99225 15.36C6.16825 13.6533 9.00558 12.8 12.5043 12.8H18.5843C18.5416 11.2213 18.0723 10.0053 17.1763 9.152C16.3229 8.256 15.1283 7.808 13.5923 7.808C12.1416 7.808 10.5629 8.02133 8.85625 8.448C7.14958 8.832 5.72025 9.30133 4.56825 9.856L2.32825 2.944C3.52292 2.13333 5.33625 1.472 7.76825 0.959999C10.2429 0.405332 12.1416 0.127998 13.4643 0.127998C17.1763 0.127998 20.3549 1.216 23.0003 3.392C25.6456 5.52533 26.9683 8.256 26.9683 11.584V32H22.6803L20.6323 29.376C19.4803 30.272 18.1149 31.0613 16.5363 31.744C15.0003 32.4267 13.4643 32.768 11.9283 32.768ZM36.0323 22.656C37.3549 22.656 38.4429 23.104 39.2963 24C40.1923 24.896 40.6403 26.0053 40.6403 27.328C40.6403 28.6507 40.1923 29.76 39.2963 30.656C38.4429 31.552 37.3549 32 36.0323 32C34.7096 32 33.5789 31.552 32.6403 30.656C31.7443 29.76 31.2963 28.6507 31.2963 27.328C31.2963 26.0053 31.7443 24.896 32.6403 24C33.5789 23.104 34.7096 22.656 36.0323 22.656Z" fill="black"/>
</g>
<defs>
<filter id="filter0_b" x="-3.27174" y="-3.87201" width="47.912" height="40.64" filterUnits="userSpaceOnUse" color-interpolation-filters="sRGB">
<feFlood flood-opacity="0" result="BackgroundImageFix"/>
<feGaussianBlur in="BackgroundImage" stdDeviation="2"/>
<feComposite in2="SourceAlpha" operator="in" result="effect1_backgroundBlur"/>
<feBlend mode="normal" in="SourceGraphic" in2="effect1_backgroundBlur" result="shape"/>
</filter>
</defs>
</svg>

